PathFileType	4	(X/Y/Z)	F:\MotionCapture\20160217\3\Generated_files\EMG_Fprce_test07-Dynamic.trc
DataRate	CameraRate	NumFrames	NumMarkers	Units	OrigDataRate	OrigDataStartFrame	OrigNumFrames
120.00	120.00	       9	39	mm	120.00	282	       751
Frame#	Time	Top.Head			Front.Head			Rear.Head			R.Shoulder			R.Offset			R.Elbow			R.Wrist			L.Shoulder			L.Elbow			L.Wrist			R.ASIS			L.ASIS			V.Sacral			R.Thigh			R.Knee			R.Shank			R.Ankle			R.Heel			R.Toe			L.Thigh			L.Knee			L.Shank			L.Ankle			L.Heel			L.Toe			R1			R2			R3			R4			R5			R6			R7			L1			L2			L3			L4			L5			L6			L7			V_Mid_ASIS			V_Pelvis_Origin			V_R.Hip_JC			V_L.Hip_JC			V_R.Knee_JC			V_L.Knee_JC			V_R.Ankle_JC			V_L.Ankle_JC			V_Mid_Hip			V_Mid_Shoulder			V_R.Hand			V_L.Hand			V_R.Toe_Offset_Static			V_L.Toe_Offset_Static			V_R.Toe_Offset			V_L.Toe_Offset			
		X1	Y1	Z1	X2	Y2	Z2	X3	Y3	Z3	X4	Y4	Z4	X5	Y5	Z5	X6	Y6	Z6	X7	Y7	Z7	X8	Y8	Z8	X9	Y9	Z9	X10	Y10	Z10	X11	Y11	Z11	X12	Y12	Z12	X13	Y13	Z13	X14	Y14	Z14	X15	Y15	Z15	X16	Y16	Z16	X17	Y17	Z17	X18	Y18	Z18	X19	Y19	Z19	X20	Y20	Z20	X21	Y21	Z21	X22	Y22	Z22	X23	Y23	Z23	X24	Y24	Z24	X25	Y25	Z25	X26	Y26	Z26	X27	Y27	Z27	X28	Y28	Z28	X29	Y29	Z29	X30	Y30	Z30	X31	Y31	Z31	X32	Y32	Z32	X33	Y33	Z33	X34	Y34	Z34	X35	Y35	Z35	X36	Y36	Z36	X37	Y37	Z37	X38	Y38	Z38	X39	Y39	Z39	

282	2.342	1170.37219	142.70071	1731.23389	1058.24438	146.83994	1648.60547	1277.40552	129.40904	1661.59778	1236.37036	325.57983	1421.80396	1354.01978	48.02088	1292.02014	1307.66357	428.22495	1107.22656	1186.75317	428.42801	870.73523	1188.40149	-78.14217	1435.03149	1224.03967	-186.64841	1114.60645	1117.28552	-196.11942	879.75555	1176.57068	257.83011	953.16364	1161.09680	-27.53332	946.83820	1392.25464	105.98695	958.35779	1038.43225	254.53496	621.10455	1094.17029	292.41653	493.92258	1195.16431	191.91882	288.85016	1341.29126	228.70595	175.37042	1396.61719	150.70956	191.93407	1240.47058	223.10890	70.20458	1136.08716	34.24265	620.17346	1231.87378	-13.00091	462.44699	1231.83948	68.95882	326.09766	1318.20288	17.12178	61.33301	1384.55273	71.41953	48.17016	1178.70874	22.36117	42.37653	1197.89917	216.75160	50.92737	1224.20740	190.91374	74.61719	1284.32263	147.41394	140.68758	1350.78333	130.62270	167.02806	1382.26050	198.84840	171.84009	1331.16296	236.94252	117.38036	1281.63977	252.82826	77.65820	1135.16577	50.40112	39.23062	1167.18176	62.81669	45.15359	1263.17346	105.81128	48.29579	1346.72925	104.25739	47.29386	1357.24402	31.95166	45.60611	1283.96143	5.07335	36.62675	1220.95203	-9.25109	41.12533																																																	1579.04944	209.29179	-63.69186	
283	2.350	1157.51501	143.31361	1730.22766	1045.12720	147.23784	1647.38513	1264.51257	129.57298	1660.85669	1225.30676	325.75735	1420.39673	1342.13428	47.50959	1291.17749	1299.41675	427.28830	1106.82715	1183.55640	430.39410	867.83130	1175.26111	-78.07615	1434.07092	1205.84167	-186.94618	1112.76111	1092.85583	-192.25380	880.96155	1164.01160	256.98004	952.76880	1150.14014	-28.34486	945.37231	1380.99292	107.20770	956.64374	1020.40790	252.98601	624.94916	1073.47253	291.67700	496.15158	1165.27661	191.41963	287.18970	1306.71985	229.06685	166.87035	1362.20740	152.19917	179.36636	1199.95007	223.51405	67.52275	1128.05835	34.15374	618.37866	1227.13293	-12.81242	461.48111	1229.21814	69.42721	324.88675	1318.05530	17.42085	61.41643	1384.14868	71.91544	48.38850	1178.63159	22.25770	42.24949	1156.07300	217.25121	51.39395	1183.68469	191.45691	72.93057	1247.78882	147.79733	134.85681	1315.93298	131.06210	157.21445	1347.63196	199.74803	161.26311	1292.93811	237.20926	109.50887	1241.36975	253.43391	72.78963	1134.85266	49.96145	38.90538	1167.01733	62.58971	45.10505	1262.12964	106.07335	48.23354	1346.65930	104.74081	47.48201	1357.16528	32.39877	46.16741	1283.87598	5.19700	36.62120	1220.90173	-9.37779	41.00460																																																	1193.33911	81.00147	72.84097	
284	2.358	1144.80042	143.89587	1728.99146	1032.76294	148.24716	1646.43518	1251.84741	130.02783	1659.70447	1213.94727	325.86005	1418.48633	1330.01794	46.78090	1290.06128	1291.42847	427.28772	1106.02625	1180.82996	432.49347	864.81464	1162.30603	-78.04710	1432.93945	1187.00525	-186.95148	1111.06616	1068.90662	-189.03250	882.00793	1150.34534	256.26028	952.09613	1139.98083	-29.57874	944.11420	1369.45178	108.48854	954.82135	1003.14447	251.50813	628.68127	1053.48938	291.02051	498.18750	1135.87000	191.39998	285.12704	1270.94177	229.74835	157.90295	1327.91577	153.02676	167.38739	1159.20703	224.16254	65.14087	1121.57288	33.83597	615.99518	1222.03284	-12.66103	460.66611	1226.28772	69.86854	324.20660	1317.85864	17.67844	61.63595	1383.92615	72.28535	48.62935	1178.55591	22.08459	42.19516	1114.55408	217.88602	51.40248	1142.96716	191.50815	71.23228	1211.45435	147.91423	128.72481	1279.78979	131.32452	148.01112	1312.20483	200.62149	149.99216	1254.06860	237.72339	101.08601	1200.60266	253.96268	68.26341	1134.35645	49.57336	38.52755	1166.79797	62.47446	45.00914	1262.13025	106.19756	47.79687	1346.33264	105.04259	47.64685	1356.87439	32.72272	46.47646	1283.68738	5.43622	36.62782	1220.67712	-9.39271	40.77953																																																	1308.02283	143.08040	159.20464	1713.51941	142.65155	-122.69170	
285	2.367	1131.84875	144.45338	1727.26929	1020.64404	148.55325	1644.18530	1239.18896	130.34462	1658.29236	1202.00977	325.84979	1416.63342	1317.91455	46.27914	1288.76172	1283.16199	426.66516	1105.15479	1177.82288	434.26419	862.00171	1149.89526	-78.01761	1431.55823	1168.84973	-186.46788	1108.97656	1044.80908	-185.04741	882.91339	1137.41528	255.61215	950.89417	1129.22278	-30.22748	942.52972	1357.96997	109.98295	952.97888	985.91565	249.80014	630.93823	1032.42822	290.78845	500.23700	1106.95923	191.14989	282.87308	1234.00781	229.86819	149.14581	1293.09973	154.53088	154.95035	1118.18567	224.86835	63.71735	1113.47876	33.65528	614.01013	1217.64636	-12.56848	459.30322	1223.28259	70.66951	323.47794	1317.31128	18.04408	62.15593	1383.73083	72.62640	49.16502	1178.60449	22.02945	42.11432	1073.05176	218.47641	52.78445	1101.87366	191.37761	70.24696	1174.16406	148.52898	123.67503	1242.66052	132.07710	138.59637	1275.08521	201.24068	137.77261	1214.53723	238.77138	93.32150	1159.65320	254.77170	64.23711	1133.98596	49.40269	38.38194	1166.67969	62.36462	44.89833	1261.85583	106.35023	47.40886	1346.09973	105.61921	48.07122	1356.70361	32.95363	46.71719	1283.64978	5.64477	36.72676	1220.60193	-9.39956	40.64758																																																	1474.84619	-99.76443	312.81067	
286	2.375	1119.29968	144.94485	1725.69788	1008.56122	149.33044	1642.50977	1226.47083	130.72517	1656.78857	1190.66785	326.10306	1414.71228	1306.25989	45.81695	1287.40991	1276.26135	426.21182	1103.75598	1174.95532	436.41687	859.30084	1136.74817	-77.52728	1430.05566	1150.47937	-186.39253	1106.87378	1020.92889	-181.06503	884.09662	1124.58936	254.91582	949.23395	1118.19226	-31.12772	940.71545	1346.24854	111.40513	950.71161	969.47534	248.66846	633.38971	1013.09723	289.86548	501.54959	1077.30042	190.84888	280.80246	1196.67017	231.66905	141.51076	1257.10339	155.63530	142.95190	1076.67554	225.66774	62.82343	1105.51843	34.26761	612.19836	1212.58215	-12.32032	458.38504	1220.84448	71.27702	322.03601	1317.24524	18.37227	62.60526	1383.54126	73.16904	49.97586	1178.52124	22.06332	42.07713	1031.05701	219.13020	54.25832	1062.16052	192.48589	69.52727	1137.61951	149.54002	118.10013	1207.42480	134.19366	128.82672	1237.74438	202.88402	127.25317	1175.09058	240.52574	86.50729	1117.76245	255.71622	60.36662	1133.90710	49.29999	38.33718	1166.37891	62.26425	44.84403	1261.85645	106.54429	47.29178	1345.89270	105.96847	48.27063	1356.52820	33.48665	47.02836	1283.37292	6.16388	36.92135	1220.03101	-8.84933	40.48390	
287	2.383	1106.81763	145.73282	1723.80981	995.34119	150.19753	1640.56274	1213.74866	131.03156	1655.21790	1178.58154	326.35403	1411.98840	1294.20691	45.43784	1285.92639	1266.85352	426.06262	1102.82605	1171.44189	438.27563	856.09265	1124.07935	-77.68181	1427.93335	1131.96155	-185.88135	1104.51147	996.72858	-177.14941	885.46881	1111.68323	254.74156	947.24414	1106.89722	-31.66631	939.17432	1334.42578	112.54919	948.62390	953.26331	247.31902	634.73303	993.91650	289.12601	502.49969	1049.26636	191.70375	278.47604	1159.61145	232.30731	132.07094	1221.00586	158.08649	130.51961	1035.98279	226.39493	61.58033	1097.92676	34.15976	609.62030	1207.06262	-12.33100	457.41348	1217.95300	71.71681	321.24597	1317.06372	18.67518	62.73669	1383.54919	73.51388	50.25578	1178.55212	21.91165	41.96903	989.57501	219.57210	56.35648	1021.14655	193.42073	69.48031	1100.07507	150.82928	113.01532	1170.42529	135.64006	119.65320	1200.02161	204.92616	116.94147	1134.42798	242.04942	79.22962	1076.28589	256.50732	57.26354	1134.01477	48.99709	38.18366	1166.29785	62.07973	44.61627	1261.19849	106.53031	46.83841	1345.85669	106.34303	48.66564	1356.38196	33.80644	47.41908	1283.29346	6.43553	37.03089	1220.04578	-8.85066	40.31213	
288	2.392	1093.46521	146.25516	1721.56702	981.91583	150.56122	1637.93237	1201.09351	131.44585	1653.25806	1166.84338	326.56949	1409.60535	1282.30835	44.89289	1284.17200	1259.15454	425.69342	1101.35352	1168.16479	440.18549	853.23132	1110.76086	-77.35492	1425.96472	1113.41125	-185.13977	1102.04346	973.13745	-172.99026	886.87030	1099.00110	254.24420	944.95923	1095.64221	-32.23808	937.02045	1322.48584	113.70752	946.43811	937.05573	246.57922	635.77484	976.13385	287.72083	503.29877	1019.84357	191.85001	276.43002	1125.13782	235.14445	125.25536	1184.47449	160.71240	119.18391	994.56976	227.36061	61.18050	1090.34485	34.80015	607.38263	1202.28369	-11.66331	456.25705	1214.13538	72.16318	320.47940	1317.10632	18.99214	62.91243	1383.71936	73.87858	51.05284	1178.50085	21.85574	41.91227	948.28467	220.52145	59.18437	981.06000	194.22662	69.67366	1061.92297	152.43750	108.72588	1133.38123	137.52754	110.97717	1161.72144	207.21201	107.11882	1094.13721	243.92476	73.13308	1034.53967	257.90240	54.25101	1133.83691	48.43876	38.02455	1165.83704	62.05898	44.64399	1260.81506	106.61414	46.68845	1345.74072	106.78411	48.93719	1356.23230	34.46380	47.98906	1283.42419	6.60353	37.19971	1220.41150	-9.24184	40.32435	
289	2.400	1080.60571	146.75766	1719.26636	969.86578	151.24532	1635.67920	1188.28821	131.92093	1650.90076	1155.17749	327.01056	1407.26086	1270.31238	45.26860	1282.34460	1250.66101	425.66400	1100.34668	1165.73901	442.32797	850.73151	1097.99951	-77.14241	1423.60120	1095.47852	-184.58502	1099.33069	949.43384	-168.96494	888.10938	1086.05884	254.20570	942.41724	1084.64185	-32.80243	934.89996	1310.18201	114.64438	944.16589	921.86487	245.46556	636.02954	957.47443	286.86191	503.43948	991.28882	192.31262	274.68549	1083.04761	236.11043	116.35686	1146.02417	162.13858	107.48915	952.59003	228.40399	62.16272	1081.92053	34.81634	605.68683	1196.79138	-11.60741	455.24478	1210.87854	72.27729	319.41785	1317.12000	19.41771	63.11361	1383.55237	74.58498	51.89618	1178.54175	21.72145	41.82376	907.59790	221.14693	62.88427	941.27838	195.09145	70.81345	1024.35974	153.92986	104.23420	1095.51086	139.95311	102.73167	1122.78162	209.89404	96.38780	1053.01843	246.41368	67.61393	992.68011	259.26208	52.48183	1133.36194	47.89657	38.05962	1165.94580	62.08572	44.66521	1260.75635	106.89629	46.56838	1344.54578	106.71043	48.66852	1355.97705	34.91117	48.70327	1283.49731	6.74659	37.32107	1220.26624	-9.10979	40.28319	
290	2.408	1067.84595	147.42485	1716.74561	956.48022	151.78688	1632.74719	1175.60693	132.40228	1648.71631	1143.14417	326.89529	1404.69055	1258.04871	45.33126	1280.17590	1241.42200	425.60635	1099.06958	1162.35779	443.65964	847.64386	1084.96301	-76.97984	1420.83936	1076.84644	-183.73174	1096.71423	925.65161	-164.68164	889.61169	1073.04675	254.05775	939.44470	1073.32617	-33.05680	932.68219	1297.70947	115.65308	941.88025	906.51190	244.72673	635.58978	940.15619	286.06216	502.91360	963.10504	192.89449	272.65656	1044.15710	237.62183	109.32701	1109.25244	165.75005	96.99837	912.30438	229.85588	63.29430	1074.69385	34.88323	602.98486	1192.11511	-11.12861	453.78494	1207.02332	72.16988	318.57330	1316.97546	20.02916	63.50873	1383.11548	75.62457	52.66296	1178.54602	21.70247	41.76397	867.15546	221.77022	66.54902	901.76904	196.03920	72.07091	986.80060	155.99977	100.93945	1057.69910	142.89430	94.69437	1085.44238	213.60435	87.97079	1012.57086	248.06776	62.64430	950.85590	261.31836	51.77048	1134.06982	48.25317	37.66112	1165.62683	62.10439	44.40773	1260.25598	107.11858	46.32515	1343.80469	107.49030	49.19143	1355.86438	35.59064	49.20514	1283.56189	6.95093	37.37270	1220.36145	-9.00863	40.24129																																																	843.37695	262.65054	38.17406	
